<svg width="0" height="0" class="hidden">
    
    <!-- Home -->
    <symbol xmlns="http://www.w3.org/2000/svg" viewBox="0 0 251.479 251.479" id="home">
       <g>
            <path d="M209.355,135.551c-4.143,0-7.5,3.358-7.5,7.5v76.109H49.634v-76.109c0-4.142-3.357-7.5-7.5-7.5c-4.143,0-7.5,3.358-7.5,7.5
                v83.609c0,4.142,3.357,7.5,7.5,7.5h167.221c4.143,0,7.5-3.358,7.5-7.5v-83.609C216.855,138.909,213.497,135.551,209.355,135.551z"
                />
            <path d="M249.282,137.748L131.035,19.515c-2.928-2.929-7.677-2.928-10.606,0L2.197,137.748c-2.929,2.929-2.929,7.678,0,10.606
                c1.465,1.464,3.385,2.197,5.304,2.197c1.92,0,3.839-0.732,5.304-2.197l112.929-112.93l112.943,112.93
                c2.928,2.929,7.677,2.928,10.607-0.001C252.211,145.425,252.211,140.676,249.282,137.748z"/>
        </g>
    </symbol>
    
    <!-- Menu -->
    <symbol xmlns="http://www.w3.org/2000/svg" viewBox="0 0 482.8 482.8" id="menu">
     <g>
        <g>
            <path d="M108.2,0.1H33c-18.2,0-33,14.8-33,33v75.1c0,18.2,14.8,33,33,33h75.1c18.2,0,33-14.8,33-33V33
                C141.2,14.9,126.4,0.1,108.2,0.1z M114.2,108.2c0,3.3-2.7,6-6,6H33c-3.3,0-6-2.7-6-6V33c0-3.3,2.7-6,6-6h75.1c3.3,0,6,2.7,6,6
                v75.2H114.2z"/>
            <path d="M108.2,170.9H33c-18.2,0-33,14.8-33,33V279c0,18.2,14.8,33,33,33h75.1c18.2,0,33-14.8,33-33v-75.1
                C141.2,185.7,126.4,170.9,108.2,170.9z M114.2,279c0,3.3-2.7,6-6,6H33c-3.3,0-6-2.7-6-6v-75.1c0-3.3,2.7-6,6-6h75.1
                c3.3,0,6,2.7,6,6V279H114.2z"/>
            <path d="M108.2,341.6H33c-18.2,0-33,14.8-33,33v75.1c0,18.2,14.8,33,33,33h75.1c18.2,0,33-14.8,33-33v-75.1
                C141.2,356.4,126.4,341.6,108.2,341.6z M114.2,449.8c0,3.3-2.7,6-6,6H33c-3.3,0-6-2.7-6-6v-75.1c0-3.3,2.7-6,6-6h75.1
                c3.3,0,6,2.7,6,6v75.1H114.2z"/>
            <path d="M279,170.9h-75.1c-18.2,0-33,14.8-33,33V279c0,18.2,14.8,33,33,33H279c18.2,0,33-14.8,33-33v-75.1
                C311.9,185.7,297.2,170.9,279,170.9z M284.9,279c0,3.3-2.7,6-6,6h-75.1c-3.3,0-6-2.7-6-6v-75.1c0-3.3,2.7-6,6-6h75.1
                c3.3,0,6,2.7,6,6V279z"/>
            <path d="M279,341.6h-75.1c-18.2,0-33,14.8-33,33v75.1c0,18.2,14.8,33,33,33H279c18.2,0,33-14.8,33-33v-75.1
                C311.9,356.4,297.2,341.6,279,341.6z M284.9,449.8c0,3.3-2.7,6-6,6h-75.1c-3.3,0-6-2.7-6-6v-75.1c0-3.3,2.7-6,6-6h75.1
                c3.3,0,6,2.7,6,6V449.8z"/>
            <path d="M449.8,170.9h-75.1c-18.2,0-33,14.8-33,33V279c0,18.2,14.8,33,33,33h75.1c18.2,0,33-14.8,33-33v-75.1
                C482.7,185.7,467.9,170.9,449.8,170.9z M455.7,279c0,3.3-2.7,6-6,6h-75.1c-3.3,0-6-2.7-6-6v-75.1c0-3.3,2.7-6,6-6h75.1
                c3.3,0,6,2.7,6,6V279z"/>
            <path d="M449.8,341.6h-75.1c-18.2,0-33,14.8-33,33v75.1c0,18.2,14.8,33,33,33h75.1c18.2,0,33-14.8,33-33v-75.1
                C482.7,356.4,467.9,341.6,449.8,341.6z M455.7,449.8c0,3.3-2.7,6-6,6h-75.1c-3.3,0-6-2.7-6-6v-75.1c0-3.3,2.7-6,6-6h75.1
                c3.3,0,6,2.7,6,6V449.8z"/>
            <path d="M449.8,0.1h-75.1c-18.2,0-33,14.8-33,33v75.1c0,18.2,14.8,33,33,33h75.1c18.2,0,33-14.8,33-33V33
                C482.7,14.9,467.9,0.1,449.8,0.1z M455.7,108.2c0,3.3-2.7,6-6,6h-75.1c-3.3,0-6-2.7-6-6V33c0-3.3,2.7-6,6-6h75.1c3.3,0,6,2.7,6,6
                V108.2z"/>
            <path d="M279,0.1h-75.1c-18.2,0-33,14.8-33,33v75.1c0,18.2,14.8,33,33,33H279c18.2,0,33-14.8,33-33V33
                C311.9,14.9,297.2,0.1,279,0.1z M284.9,108.2c0,3.3-2.7,6-6,6h-75.1c-3.3,0-6-2.7-6-6V33c0-3.3,2.7-6,6-6h75.1c3.3,0,6,2.7,6,6
                V108.2z"/>
        </g>
    </g>
    </symbol>
   
    <!-- Settings -->
    <symbol xmlns="http://www.w3.org/2000/svg" viewBox="0 0 478.703 478.703" id="settings">
       <g>
            <g>
                <path d="M454.2,189.101l-33.6-5.7c-3.5-11.3-8-22.2-13.5-32.6l19.8-27.7c8.4-11.8,7.1-27.9-3.2-38.1l-29.8-29.8
                    c-5.6-5.6-13-8.7-20.9-8.7c-6.2,0-12.1,1.9-17.1,5.5l-27.8,19.8c-10.8-5.7-22.1-10.4-33.8-13.9l-5.6-33.2
                    c-2.4-14.3-14.7-24.7-29.2-24.7h-42.1c-14.5,0-26.8,10.4-29.2,24.7l-5.8,34c-11.2,3.5-22.1,8.1-32.5,13.7l-27.5-19.8
                    c-5-3.6-11-5.5-17.2-5.5c-7.9,0-15.4,3.1-20.9,8.7l-29.9,29.8c-10.2,10.2-11.6,26.3-3.2,38.1l20,28.1
                    c-5.5,10.5-9.9,21.4-13.3,32.7l-33.2,5.6c-14.3,2.4-24.7,14.7-24.7,29.2v42.1c0,14.5,10.4,26.8,24.7,29.2l34,5.8
                    c3.5,11.2,8.1,22.1,13.7,32.5l-19.7,27.4c-8.4,11.8-7.1,27.9,3.2,38.1l29.8,29.8c5.6,5.6,13,8.7,20.9,8.7c6.2,0,12.1-1.9,17.1-5.5
                    l28.1-20c10.1,5.3,20.7,9.6,31.6,13l5.6,33.6c2.4,14.3,14.7,24.7,29.2,24.7h42.2c14.5,0,26.8-10.4,29.2-24.7l5.7-33.6
                    c11.3-3.5,22.2-8,32.6-13.5l27.7,19.8c5,3.6,11,5.5,17.2,5.5l0,0c7.9,0,15.3-3.1,20.9-8.7l29.8-29.8c10.2-10.2,11.6-26.3,3.2-38.1
                    l-19.8-27.8c5.5-10.5,10.1-21.4,13.5-32.6l33.6-5.6c14.3-2.4,24.7-14.7,24.7-29.2v-42.1
                    C478.9,203.801,468.5,191.501,454.2,189.101z M451.9,260.401c0,1.3-0.9,2.4-2.2,2.6l-42,7c-5.3,0.9-9.5,4.8-10.8,9.9
                    c-3.8,14.7-9.6,28.8-17.4,41.9c-2.7,4.6-2.5,10.3,0.6,14.7l24.7,34.8c0.7,1,0.6,2.5-0.3,3.4l-29.8,29.8c-0.7,0.7-1.4,0.8-1.9,0.8
                    c-0.6,0-1.1-0.2-1.5-0.5l-34.7-24.7c-4.3-3.1-10.1-3.3-14.7-0.6c-13.1,7.8-27.2,13.6-41.9,17.4c-5.2,1.3-9.1,5.6-9.9,10.8l-7.1,42
                    c-0.2,1.3-1.3,2.2-2.6,2.2h-42.1c-1.3,0-2.4-0.9-2.6-2.2l-7-42c-0.9-5.3-4.8-9.5-9.9-10.8c-14.3-3.7-28.1-9.4-41-16.8
                    c-2.1-1.2-4.5-1.8-6.8-1.8c-2.7,0-5.5,0.8-7.8,2.5l-35,24.9c-0.5,0.3-1,0.5-1.5,0.5c-0.4,0-1.2-0.1-1.9-0.8l-29.8-29.8
                    c-0.9-0.9-1-2.3-0.3-3.4l24.6-34.5c3.1-4.4,3.3-10.2,0.6-14.8c-7.8-13-13.8-27.1-17.6-41.8c-1.4-5.1-5.6-9-10.8-9.9l-42.3-7.2
                    c-1.3-0.2-2.2-1.3-2.2-2.6v-42.1c0-1.3,0.9-2.4,2.2-2.6l41.7-7c5.3-0.9,9.6-4.8,10.9-10c3.7-14.7,9.4-28.9,17.1-42
                    c2.7-4.6,2.4-10.3-0.7-14.6l-24.9-35c-0.7-1-0.6-2.5,0.3-3.4l29.8-29.8c0.7-0.7,1.4-0.8,1.9-0.8c0.6,0,1.1,0.2,1.5,0.5l34.5,24.6
                    c4.4,3.1,10.2,3.3,14.8,0.6c13-7.8,27.1-13.8,41.8-17.6c5.1-1.4,9-5.6,9.9-10.8l7.2-42.3c0.2-1.3,1.3-2.2,2.6-2.2h42.1
                    c1.3,0,2.4,0.9,2.6,2.2l7,41.7c0.9,5.3,4.8,9.6,10,10.9c15.1,3.8,29.5,9.7,42.9,17.6c4.6,2.7,10.3,2.5,14.7-0.6l34.5-24.8
                    c0.5-0.3,1-0.5,1.5-0.5c0.4,0,1.2,0.1,1.9,0.8l29.8,29.8c0.9,0.9,1,2.3,0.3,3.4l-24.7,34.7c-3.1,4.3-3.3,10.1-0.6,14.7
                    c7.8,13.1,13.6,27.2,17.4,41.9c1.3,5.2,5.6,9.1,10.8,9.9l42,7.1c1.3,0.2,2.2,1.3,2.2,2.6v42.1H451.9z"/>
                <path d="M239.4,136.001c-57,0-103.3,46.3-103.3,103.3s46.3,103.3,103.3,103.3s103.3-46.3,103.3-103.3S296.4,136.001,239.4,136.001
                    z M239.4,315.601c-42.1,0-76.3-34.2-76.3-76.3s34.2-76.3,76.3-76.3s76.3,34.2,76.3,76.3S281.5,315.601,239.4,315.601z"/>
            </g>
        </g>
    </symbol>
  
    <!-- History -->
    <symbol xmlns="http://www.w3.org/2000/svg" viewBox="0 0 83.001 83.001" id="history">
       <g>
        <path d="M41.5,0C18.617,0,0.001,18.617,0.001,41.5c0,22.884,18.616,41.501,41.499,41.501C64.383,83.001,83,64.384,83,41.5
            C83,18.617,64.382,0,41.5,0z M41.5,77.001C21.926,77.001,6,61.075,6,41.5S21.925,6,41.5,6C61.075,6,77,21.925,77,41.5
            S61.075,77.001,41.5,77.001z"/>
        <path d="M53.508,45.32c-0.016,0-0.03,0-0.046,0L44.5,45.454V22c0-1.657-1.343-3-3-3s-3,1.343-3,3v26.5
            c0,0.006,0.002,0.012,0.002,0.018c0,0.01-0.002,0.019-0.002,0.027c0.002,0.122,0.025,0.237,0.041,0.354
            c0.01,0.073,0.011,0.148,0.025,0.22c0.027,0.129,0.072,0.249,0.115,0.37c0.022,0.063,0.036,0.129,0.062,0.189
            c0.052,0.123,0.122,0.235,0.189,0.35c0.031,0.051,0.054,0.107,0.087,0.157c0.076,0.111,0.167,0.21,0.257,0.311
            c0.038,0.042,0.069,0.09,0.109,0.131c0.097,0.096,0.206,0.177,0.315,0.26c0.044,0.033,0.083,0.073,0.128,0.104
            c0.118,0.08,0.247,0.143,0.376,0.205c0.045,0.021,0.085,0.051,0.131,0.07c0.15,0.063,0.31,0.107,0.472,0.146
            c0.03,0.007,0.058,0.021,0.089,0.027c0.194,0.039,0.395,0.061,0.601,0.061c0.015,0,0.031,0,0.046,0l12.008-0.18
            c1.656-0.025,2.979-1.389,2.955-3.045C56.483,46.634,55.144,45.32,53.508,45.32z"/>
        </g>
    </symbol>
  
    <!-- Report -->
    <symbol xmlns="http://www.w3.org/2000/svg" viewBox="0 0 489.1 489.1" id="report">
       <g>
            <g>
                <path d="M12.25,215.7h191.2c6.8,0,12.3-5.5,12.3-12.3V12.3c0-6.8-5.5-12.3-12.3-12.3C91.25,0,0.05,91.2,0.05,203.4
                    C0.05,210.3,5.55,215.7,12.25,215.7z M191.15,25v166.2H24.95C30.95,102.3,102.25,31,191.15,25z"/>
                <path d="M44.45,266.8c0,122.6,99.7,222.3,222.3,222.3s222.3-99.7,222.3-222.3s-99.7-222.3-222.3-222.3c-6.8,0-12.3,5.5-12.3,12.3
                    v197.8H56.75C49.95,254.6,44.45,260.1,44.45,266.8z M266.75,279.1c6.8,0,12.3-5.5,12.3-12.3V69.4
                    c103.4,6.3,185.5,92.5,185.5,197.4c0,109.1-88.7,197.8-197.8,197.8c-105,0-191.1-82.2-197.4-185.5H266.75z"/>
            </g>
        </g>
    </symbol>
  
    <!-- Products -->
    <symbol xmlns="http://www.w3.org/2000/svg" viewBox="0 0 1000 1000" id="products">
       <g><path d="M377.4,469.4H101.9c-50.6,0-91.9-41.2-91.9-91.9V101.9C10,51.3,51.2,10,101.9,10h275.6c50.6,0,91.9,41.2,91.9,91.8v275.7C469.4,428.2,428.1,469.4,377.4,469.4z M101.9,71.2C85,71.2,71.2,85,71.2,101.9v275.7c0,16.8,13.7,30.7,30.7,30.7h275.6c16.8,0,30.7-13.7,30.7-30.7V101.9c0-16.8-13.7-30.6-30.7-30.6H101.9L101.9,71.2z M898,591.9H622.5c-50.6,0-91.8-41.2-91.8-91.8V101.9c0-50.6,41.2-91.8,91.8-91.8h275.7c50.6,0,91.8,41.2,91.8,91.8v398C990,550.7,948.8,591.9,898,591.9z M622.5,71.2c-16.8,0-30.6,13.7-30.6,30.6v398c0,16.8,13.7,30.6,30.6,30.6h275.7c16.8,0,30.6-13.7,30.6-30.6v-398c0-16.8-13.7-30.6-30.6-30.6H622.5L622.5,71.2z M377.4,990H101.9C51.2,990,10,948.7,10,898.1V622.5c0-50.6,41.2-91.9,91.9-91.9h275.6c50.6,0,91.9,41.2,91.9,91.9v275.6C469.4,948.8,428.1,990,377.4,990z M101.9,591.9c-16.8,0-30.7,13.7-30.7,30.7v275.7c0,16.8,13.7,30.7,30.7,30.7h275.6c16.8,0,30.7-13.7,30.7-30.7V622.5c0-16.8-13.7-30.7-30.7-30.7H101.9z M898,990H622.5c-50.6,0-91.8-41.2-91.8-91.9V745c0-50.6,41.2-91.8,91.8-91.8h275.7c50.6,0,91.8,41.2,91.8,91.8v153.2C989.9,948.8,948.8,990,898,990z M622.5,714.4c-16.8,0-30.6,13.7-30.6,30.7v153.2c0,16.8,13.7,30.7,30.6,30.7h275.7c16.8,0,30.6-13.7,30.6-30.7V745c0-16.8-13.7-30.7-30.6-30.7H622.5z"/></g>
    </symbol>
  
    <!-- Dashboard -->
    <symbol xmlns="http://www.w3.org/2000/svg" viewBox="0 0 1000 1000" id="dashboard">
      <g><path d="M914.5,875.4h-20h-56.2h-86.2c-0.3,0-0.6-0.1-0.9-0.2c-0.3,0-0.6,0.2-0.9,0.2c-17.3,0-31.3-14-31.3-31.3c0-17.3,14-31.3,31.3-31.3c0.3,0,0.6,0.2,0.9,0.2c0.3,0,0.6-0.2,0.9-0.2h126.2c31.2-59.2,49.2-126.5,49.2-198.1c0-88.1-26.8-170.1-72.6-238.2c1.6-1.2,2.8-2.8,4.3-4.2c-10.1-5.3-17.2-15.7-17.2-28.1c0-17.6,14-32,31.3-32c15,0,27,11.1,29.9,25.4c54.2,78.9,86.7,173.9,86.7,277C990.1,710.6,962.1,799.8,914.5,875.4z M434,760.4c-39.8-19.4-56.2-67-36.6-106.5c19.5-39.4,402.1-489.8,402.1-489.8s-238.4,520.5-258,560C521.9,763.5,473.8,779.7,434,760.4z M557.4,191.5c-2,0-3.8-0.8-5.8-1.1c-0.5,1.9-1.2-1.9-1.6,0c-16.4-1.9-33-3.2-49.9-3.2C264,187.2,72.6,378.6,72.6,614.7c0,71.5,17.9,138.9,48.8,198.1H248c0.3,0,0.6,0.1,0.9,0.2c0.3,0,0.6-0.2,0.9-0.2c17.3,0,31.3,14,31.3,31.3c0,17.3-14,31.3-31.3,31.3c-0.3,0-0.6-0.2-0.9-0.2s-0.6,0.2-0.9,0.2h-86.2H85.6C38,799.8,10,710.6,10,614.7C10,344,229.5,124.6,500.1,124.6c13.8,0,27.3,0.9,40.7,2.1c7.6-1.1,10.4,1.4,16.6,1.4c17.6,0,32,13.3,32,31.1C589.3,177.1,575,191.5,557.4,191.5z"/></g>
    </symbol>
   
    <!-- Logout -->
    <symbol xmlns="http://www.w3.org/2000/svg" viewBox="0 0 113.055 122.88" id="logout">
        <g><path d="M53.114,2.457C53.114,1.1,54.643,0,56.527,0s3.413,1.1,3.413,2.457v44.377c0,1.357-1.528,2.457-3.413,2.457 s-3.413-1.1-3.413-2.457V2.457L53.114,2.457z M73.615,19.661c-1.768-0.648-2.675-2.605-2.026-4.373 c0.647-1.767,2.604-2.674,4.372-2.026c10.962,4.015,20.339,11.339,26.924,20.766c6.409,9.174,10.17,20.32,10.17,32.325 c0,15.606-6.329,29.738-16.559,39.969c-10.23,10.229-24.362,16.559-39.969,16.559s-29.739-6.329-39.969-16.559 C6.329,96.091,0,81.959,0,66.353c0-12.005,3.76-23.151,10.169-32.325c6.585-9.427,15.962-16.751,26.924-20.766 c1.767-0.647,3.725,0.26,4.372,2.026c0.648,1.767-0.259,3.725-2.026,4.373c-9.659,3.538-17.913,9.978-23.698,18.259 c-5.619,8.044-8.916,17.846-8.916,28.433c0,13.723,5.564,26.148,14.559,35.143c8.995,8.995,21.42,14.56,35.143,14.56 s26.148-5.564,35.143-14.56c8.995-8.994,14.559-21.42,14.559-35.143c0-10.587-3.297-20.389-8.916-28.433 C91.527,29.638,83.274,23.198,73.615,19.661L73.615,19.661z"/></g>
    </symbol>
</svg>